<svg width="7" height="9" viewBox="0 0 7 9" fill="none" xmlns="http://www.w3.org/2000/svg">
<path d="M0.779297 9V0.1875L2.31445 0.0878906V1.94531C2.31445 2.03516 2.30859 2.28516 2.29688 2.69531C2.28516 3.10156 2.2793 3.30859 2.2793 3.31641C2.79102 2.70703 3.47852 2.40234 4.3418 2.40234C5.06055 2.40234 5.61719 2.60938 6.01172 3.02344C6.41016 3.43359 6.60938 4.06641 6.60938 4.92188V9H5.07422V5.0918C5.07422 4.56445 4.99023 4.17773 4.82227 3.93164C4.6543 3.68555 4.36914 3.5625 3.9668 3.5625C3.62305 3.5625 3.31836 3.65039 3.05273 3.82617C2.78711 3.99805 2.58789 4.2207 2.45508 4.49414C2.36133 4.85352 2.31445 5.32227 2.31445 5.90039V9H0.779297Z" fill="#00A82D"/>
</svg>
