<svg width="50" height="12" viewBox="0 0 50 12" fill="none" xmlns="http://www.w3.org/2000/svg">
<path d="M5.16797 9V5.11523C5.16797 4.4707 5.06445 4.00195 4.85742 3.70898C4.6543 3.41602 4.29688 3.26953 3.78516 3.26953C3.29297 3.26953 2.87695 3.39258 2.53711 3.63867C2.20117 3.88477 1.98242 4.20312 1.88086 4.59375C1.8457 4.88672 1.82812 5.21289 1.82812 5.57227V9H0.849609V0.0761719L1.82812 0.0175781V2.63086C1.82812 2.85352 1.82031 3.12891 1.80469 3.45703C2.35547 2.77734 3.08594 2.4375 3.99609 2.4375C5.42969 2.4375 6.14648 3.2793 6.14648 4.96289V9H5.16797Z" fill="#00A82D"/>
<path d="M11.0566 3.76172C10.7715 3.41797 10.3789 3.24609 9.87891 3.24609C9.37891 3.24609 8.9707 3.42383 8.6543 3.7793C8.33789 4.13086 8.15234 4.61328 8.09766 5.22656H11.4902C11.4902 4.58984 11.3457 4.10156 11.0566 3.76172ZM10.0723 9.13477C9.13867 9.13477 8.40234 8.83789 7.86328 8.24414C7.32812 7.65039 7.06055 6.83789 7.06055 5.80664C7.06055 4.81055 7.32031 4.00391 7.83984 3.38672C8.35938 2.76562 9.04297 2.44922 9.89062 2.4375C10.6875 2.4375 11.3184 2.71094 11.7832 3.25781C12.252 3.80078 12.4863 4.52734 12.4863 5.4375C12.4863 5.48438 12.4844 5.57031 12.4805 5.69531C12.4805 5.82031 12.4805 5.91016 12.4805 5.96484H8.06836C8.08008 6.69531 8.26758 7.26562 8.63086 7.67578C8.99805 8.08203 9.49023 8.28516 10.1074 8.28516C10.7871 8.28516 11.4688 8.10547 12.1523 7.74609L12.3047 8.53711C11.6523 8.93555 10.9082 9.13477 10.0723 9.13477Z" fill="#00A82D"/>
<path d="M15.5742 9.11719C14.9492 9.11719 14.5059 8.94922 14.2441 8.61328C13.9863 8.27734 13.8574 7.69336 13.8574 6.86133V0.0761719L14.8301 0.0175781V6.47461C14.8301 6.74023 14.832 6.95312 14.8359 7.11328C14.8438 7.27344 14.8594 7.43164 14.8828 7.58789C14.9062 7.74023 14.9375 7.85547 14.9766 7.93359C15.0156 8.01172 15.0723 8.08398 15.1465 8.15039C15.2207 8.21289 15.3086 8.25586 15.4102 8.2793C15.5156 8.29883 15.6445 8.30859 15.7969 8.30859C15.9219 8.30859 16.168 8.28516 16.5352 8.23828L16.5879 9.01758C16.1855 9.08398 15.8477 9.11719 15.5742 9.11719Z" fill="#00A82D"/>
<path d="M17.1855 11.7891V2.57227H18.0469L18.1406 3.44531C18.7031 2.77344 19.3789 2.4375 20.168 2.4375C20.7539 2.4375 21.25 2.58398 21.6562 2.87695C22.0625 3.16992 22.3613 3.56641 22.5527 4.06641C22.748 4.56641 22.8457 5.15039 22.8457 5.81836C22.8457 6.45898 22.7402 7.0293 22.5293 7.5293C22.3184 8.02539 22.0078 8.41797 21.5977 8.70703C21.1914 8.99219 20.7148 9.13477 20.168 9.13477C19.7539 9.13477 19.3652 9.04297 19.002 8.85938C18.6387 8.67188 18.3477 8.42578 18.1289 8.12109C18.1523 8.54297 18.1641 8.95312 18.1641 9.35156V11.7246L17.1855 11.7891ZM20.0332 8.30859C20.3301 8.30859 20.5957 8.24219 20.8301 8.10938C21.0645 7.97266 21.2539 7.78711 21.3984 7.55273C21.543 7.31836 21.6523 7.05273 21.7266 6.75586C21.8008 6.45508 21.8379 6.13086 21.8379 5.7832C21.8379 5.04883 21.6836 4.44727 21.375 3.97852C21.0664 3.50586 20.6152 3.26953 20.0215 3.26953C18.7793 3.26953 18.1582 4.07227 18.1582 5.67773C18.1582 6.54883 18.3027 7.20508 18.5918 7.64648C18.8848 8.08789 19.3652 8.30859 20.0332 8.30859Z" fill="#00A82D"/>
<path d="M24.0059 6.85547V2.57227H24.9902V6.86719C24.9902 7.14844 25.0293 7.38672 25.1074 7.58203C25.1895 7.77734 25.3047 7.92969 25.4531 8.03906C25.6055 8.14453 25.7754 8.2207 25.9629 8.26758C26.1543 8.31445 26.373 8.33789 26.6191 8.33789C27.127 8.33789 27.5215 8.22656 27.8027 8.00391C28.0879 7.78125 28.2305 7.40234 28.2305 6.86719V2.57227H29.2148V6.85547C29.2148 7.18359 29.168 7.47852 29.0742 7.74023C28.9805 8.00195 28.8535 8.2207 28.6934 8.39648C28.5371 8.56836 28.3477 8.71094 28.125 8.82422C27.9023 8.9375 27.666 9.01953 27.416 9.07031C27.1699 9.12109 26.9043 9.14648 26.6191 9.14648C26.3379 9.14648 26.0723 9.12109 25.8223 9.07031C25.5723 9.01953 25.334 8.9375 25.1074 8.82422C24.8848 8.70703 24.6914 8.5625 24.5273 8.39062C24.3672 8.21484 24.2402 7.99609 24.1465 7.73438C24.0527 7.47266 24.0059 7.17969 24.0059 6.85547Z" fill="#00A82D"/>
<path d="M33.1699 8.16211C33.502 8.16211 33.793 8.10352 34.043 7.98633C34.293 7.86914 34.4883 7.70703 34.6289 7.5C34.7695 7.29297 34.873 7.0625 34.9395 6.80859C35.0098 6.55469 35.0449 6.27734 35.0449 5.97656V5.50195C35.0449 5.18945 35.0098 4.90234 34.9395 4.64062C34.8691 4.375 34.7598 4.13867 34.6113 3.93164C34.4668 3.7207 34.2715 3.55664 34.0254 3.43945C33.7832 3.32227 33.5 3.26367 33.1758 3.26367C32.9062 3.26367 32.6602 3.31445 32.4375 3.41602C32.2188 3.51758 32.0371 3.65234 31.8926 3.82031C31.752 3.98438 31.6309 4.17773 31.5293 4.40039C31.4316 4.61914 31.3613 4.8418 31.3184 5.06836C31.2754 5.29492 31.2539 5.52344 31.2539 5.75391C31.2539 5.98047 31.2773 6.20508 31.3242 6.42773C31.3711 6.65039 31.4453 6.86719 31.5469 7.07812C31.6484 7.28906 31.7715 7.47461 31.916 7.63477C32.0605 7.79102 32.2402 7.91797 32.4551 8.01562C32.6738 8.11328 32.9121 8.16211 33.1699 8.16211ZM31.6641 11.9414L31.5762 11.0566H32.7715C33.1035 11.0566 33.3926 11.0332 33.6387 10.9863C33.8848 10.9395 34.0898 10.8613 34.2539 10.752C34.418 10.6465 34.5508 10.5273 34.6523 10.3945C34.7539 10.2656 34.8301 10.0957 34.8809 9.88477C34.9355 9.67773 34.9707 9.4707 34.9863 9.26367C35.0059 9.06055 35.0156 8.81055 35.0156 8.51367V7.94531C34.7812 8.28125 34.5098 8.54102 34.2012 8.72461C33.8926 8.9043 33.5 8.99414 33.0234 8.99414C32.6562 8.99414 32.3164 8.93164 32.0039 8.80664C31.6953 8.67773 31.4336 8.50781 31.2188 8.29688C31.0078 8.08594 30.8262 7.8418 30.6738 7.56445C30.5254 7.28711 30.416 7 30.3457 6.70312C30.2793 6.40625 30.2461 6.10742 30.2461 5.80664C30.2461 5.33789 30.3027 4.9043 30.416 4.50586C30.5332 4.10742 30.7051 3.75195 30.9316 3.43945C31.1582 3.12695 31.4551 2.88281 31.8223 2.70703C32.1934 2.52734 32.6172 2.4375 33.0938 2.4375C33.5156 2.4375 33.8828 2.51953 34.1953 2.68359C34.5117 2.84375 34.7949 3.0918 35.0449 3.42773V2.57227H36V8.53711C36 8.81055 35.9922 9.04883 35.9766 9.25195C35.9648 9.45898 35.9316 9.6875 35.877 9.9375C35.8262 10.1875 35.7559 10.4023 35.666 10.582C35.5762 10.7617 35.4492 10.9414 35.2852 11.1211C35.125 11.3047 34.9316 11.4512 34.7051 11.5605C34.4824 11.6738 34.2051 11.7656 33.873 11.8359C33.541 11.9062 33.166 11.9414 32.748 11.9414H31.6641Z" fill="#00A82D"/>
<path d="M41.3379 3.76172C41.0527 3.41797 40.6602 3.24609 40.1602 3.24609C39.6602 3.24609 39.252 3.42383 38.9355 3.7793C38.6191 4.13086 38.4336 4.61328 38.3789 5.22656H41.7715C41.7715 4.58984 41.627 4.10156 41.3379 3.76172ZM40.3535 9.13477C39.4199 9.13477 38.6836 8.83789 38.1445 8.24414C37.6094 7.65039 37.3418 6.83789 37.3418 5.80664C37.3418 4.81055 37.6016 4.00391 38.1211 3.38672C38.6406 2.76562 39.3242 2.44922 40.1719 2.4375C40.9688 2.4375 41.5996 2.71094 42.0645 3.25781C42.5332 3.80078 42.7676 4.52734 42.7676 5.4375C42.7676 5.48438 42.7656 5.57031 42.7617 5.69531C42.7617 5.82031 42.7617 5.91016 42.7617 5.96484H38.3496C38.3613 6.69531 38.5488 7.26562 38.9121 7.67578C39.2793 8.08203 39.7715 8.28516 40.3887 8.28516C41.0684 8.28516 41.75 8.10547 42.4336 7.74609L42.5859 8.53711C41.9336 8.93555 41.1895 9.13477 40.3535 9.13477Z" fill="#00A82D"/>
<path d="M47.8301 3.76172C47.5449 3.41797 47.1523 3.24609 46.6523 3.24609C46.1523 3.24609 45.7441 3.42383 45.4277 3.7793C45.1113 4.13086 44.9258 4.61328 44.8711 5.22656H48.2637C48.2637 4.58984 48.1191 4.10156 47.8301 3.76172ZM46.8457 9.13477C45.9121 9.13477 45.1758 8.83789 44.6367 8.24414C44.1016 7.65039 43.834 6.83789 43.834 5.80664C43.834 4.81055 44.0938 4.00391 44.6133 3.38672C45.1328 2.76562 45.8164 2.44922 46.6641 2.4375C47.4609 2.4375 48.0918 2.71094 48.5566 3.25781C49.0254 3.80078 49.2598 4.52734 49.2598 5.4375C49.2598 5.48438 49.2578 5.57031 49.2539 5.69531C49.2539 5.82031 49.2539 5.91016 49.2539 5.96484H44.8418C44.8535 6.69531 45.041 7.26562 45.4043 7.67578C45.7715 8.08203 46.2637 8.28516 46.8809 8.28516C47.5605 8.28516 48.2422 8.10547 48.9258 7.74609L49.0781 8.53711C48.4258 8.93555 47.6816 9.13477 46.8457 9.13477Z" fill="#00A82D"/>
</svg>
