<svg width="48" height="12" viewBox="0 0 48 12" fill="none" xmlns="http://www.w3.org/2000/svg">
<path d="M0.779297 9V0.1875L2.31445 0.0878906V1.94531C2.31445 2.03516 2.30859 2.28516 2.29688 2.69531C2.28516 3.10156 2.2793 3.30859 2.2793 3.31641C2.79102 2.70703 3.47852 2.40234 4.3418 2.40234C5.06055 2.40234 5.61719 2.60938 6.01172 3.02344C6.41016 3.43359 6.60938 4.06641 6.60938 4.92188V9H5.07422V5.0918C5.07422 4.56445 4.99023 4.17773 4.82227 3.93164C4.6543 3.68555 4.36914 3.5625 3.9668 3.5625C3.62305 3.5625 3.31836 3.65039 3.05273 3.82617C2.78711 3.99805 2.58789 4.2207 2.45508 4.49414C2.36133 4.85352 2.31445 5.32227 2.31445 5.90039V9H0.779297Z" fill="#00A82D"/>
<path d="M10.3835 9.12305C9.34836 9.12305 8.54172 8.82617 7.96359 8.23242C7.38937 7.63477 7.10227 6.81055 7.10227 5.75977C7.10227 4.73633 7.37375 3.92188 7.91672 3.31641C8.45969 2.71094 9.19992 2.40625 10.1374 2.40234C11.0241 2.40234 11.7116 2.67969 12.1999 3.23438C12.6921 3.78906 12.9382 4.52539 12.9382 5.44336C12.9382 5.50977 12.9362 5.61719 12.9323 5.76562C12.9323 5.91406 12.9323 6.02344 12.9323 6.09375H8.64914C8.66477 6.69531 8.82883 7.16211 9.14133 7.49414C9.45773 7.82227 9.89133 7.98633 10.4421 7.98633C11.1452 7.98633 11.821 7.80273 12.4695 7.43555L12.6862 8.52539C12.0417 8.92383 11.2741 9.12305 10.3835 9.12305ZM8.67844 5.12695H11.4909C11.4909 4.60352 11.3718 4.20117 11.1335 3.91992C10.8952 3.63867 10.5652 3.49805 10.1433 3.49805C9.74875 3.49805 9.41477 3.63477 9.14133 3.9082C8.8718 4.18164 8.7175 4.58789 8.67844 5.12695Z" fill="#00A82D"/>
<path d="M15.728 9.08789C15.2866 9.08789 14.9194 9.03711 14.6264 8.93555C14.3373 8.83008 14.1088 8.66406 13.9409 8.4375C13.7729 8.21094 13.6557 7.94141 13.5893 7.62891C13.5229 7.31641 13.4897 6.92773 13.4897 6.46289V0.1875L15.0248 0.0878906V6.43359C15.0248 7.01172 15.0932 7.4043 15.2299 7.61133C15.3666 7.81445 15.6323 7.91602 16.0268 7.91602C16.2221 7.91602 16.4702 7.89453 16.7709 7.85156L16.812 8.94727C16.808 8.94727 16.7592 8.95703 16.6655 8.97656C16.5756 8.99609 16.4877 9.01172 16.4018 9.02344C16.3198 9.03906 16.2143 9.05273 16.0854 9.06445C15.9565 9.08008 15.8373 9.08789 15.728 9.08789Z" fill="#00A82D"/>
<path d="M16.8537 11.6777V2.56055H18.172L18.3361 3.46289C18.547 3.12305 18.8263 2.86133 19.174 2.67773C19.5255 2.49023 19.9162 2.39648 20.3459 2.39648C20.8732 2.39648 21.3361 2.54297 21.7345 2.83594C22.1369 3.12891 22.4416 3.5293 22.6486 4.03711C22.8556 4.54102 22.9591 5.11133 22.9591 5.74805C22.9591 6.74414 22.717 7.55664 22.2326 8.18555C21.7521 8.81055 21.0998 9.12305 20.2755 9.12305C19.8693 9.12305 19.5002 9.04297 19.1681 8.88281C18.84 8.71875 18.5646 8.49805 18.342 8.2207C18.3732 8.7832 18.3888 9.09961 18.3888 9.16992V11.6016L16.8537 11.6777ZM19.9474 7.95117C20.4045 7.95117 20.7638 7.75977 21.0255 7.37695C21.2912 6.99414 21.424 6.44727 21.424 5.73633C21.424 5.01367 21.2912 4.4707 21.0255 4.10742C20.7599 3.74414 20.3908 3.5625 19.9181 3.5625C18.9025 3.5625 18.3888 4.25391 18.3771 5.63672C18.3771 6.43359 18.508 7.01953 18.7697 7.39453C19.0353 7.76562 19.4279 7.95117 19.9474 7.95117Z" fill="#00A82D"/>
<path d="M28.1395 8.49609C27.6278 8.91406 26.954 9.12305 26.118 9.12305C25.2821 9.12305 24.6083 8.91406 24.0966 8.49609C23.5887 8.07812 23.3348 7.46484 23.3348 6.65625V2.56055H24.8759V6.59766C24.8759 7.07812 24.9755 7.42578 25.1747 7.64062C25.3778 7.85547 25.6981 7.96289 26.1356 7.96289C26.5653 7.96289 26.8778 7.85742 27.0731 7.64648C27.2723 7.43164 27.372 7.08203 27.372 6.59766V2.56055H28.9071V6.65625C28.9071 7.46094 28.6512 8.07422 28.1395 8.49609Z" fill="#00A82D"/>
<path d="M30.8824 11.8828L30.7945 10.6406H31.5738C32.4762 10.6406 33.107 10.5195 33.4664 10.2773C33.8258 10.0391 34.0055 9.59961 34.0055 8.95898C34.0055 8.69727 33.9938 8.41406 33.9703 8.10938C33.8688 8.25 33.7711 8.36719 33.6773 8.46094C33.5875 8.55078 33.4723 8.64062 33.3316 8.73047C33.1949 8.82031 33.0289 8.88867 32.8336 8.93555C32.6422 8.97852 32.4234 9 32.1773 9C31.3258 9 30.6246 8.69336 30.0738 8.08008C29.527 7.4668 29.2535 6.67578 29.2535 5.70703C29.2535 5.19141 29.3297 4.72266 29.482 4.30078C29.6344 3.875 29.8414 3.52539 30.1031 3.25195C30.3648 2.97852 30.6656 2.76953 31.0055 2.625C31.3492 2.47656 31.7145 2.40234 32.1012 2.40234C32.9645 2.40234 33.607 2.7168 34.0289 3.3457L34.1344 2.56055H35.5055V8.54297C35.5055 8.86328 35.4898 9.15039 35.4586 9.4043C35.4273 9.66211 35.3727 9.9082 35.2945 10.1426C35.2164 10.3809 35.1129 10.5879 34.984 10.7637C34.859 10.9395 34.7008 11.0996 34.5094 11.2441C34.318 11.3887 34.0914 11.5059 33.8297 11.5957C33.5719 11.6895 33.2711 11.7598 32.9273 11.8066C32.5836 11.8574 32.1969 11.8828 31.7672 11.8828H30.8824ZM32.4234 7.92773C33.482 7.92773 34.0172 7.21875 34.0289 5.80078V5.57812C34.0211 4.94141 33.8883 4.44922 33.6305 4.10156C33.3727 3.75391 32.9957 3.57812 32.4996 3.57422C31.9371 3.57422 31.5113 3.76758 31.2223 4.1543C30.9332 4.53711 30.7887 5.05469 30.7887 5.70703C30.7887 6.33594 30.9332 6.86328 31.2223 7.28906C31.5152 7.71484 31.9156 7.92773 32.4234 7.92773Z" fill="#00A82D"/>
<path d="M39.2796 9.12305C38.2445 9.12305 37.4378 8.82617 36.8597 8.23242C36.2855 7.63477 35.9984 6.81055 35.9984 5.75977C35.9984 4.73633 36.2698 3.92188 36.8128 3.31641C37.3558 2.71094 38.096 2.40625 39.0335 2.40234C39.9202 2.40234 40.6077 2.67969 41.096 3.23438C41.5882 3.78906 41.8343 4.52539 41.8343 5.44336C41.8343 5.50977 41.8323 5.61719 41.8284 5.76562C41.8284 5.91406 41.8284 6.02344 41.8284 6.09375H37.5452C37.5609 6.69531 37.7249 7.16211 38.0374 7.49414C38.3538 7.82227 38.7874 7.98633 39.3382 7.98633C40.0413 7.98633 40.7171 7.80273 41.3655 7.43555L41.5823 8.52539C40.9378 8.92383 40.1702 9.12305 39.2796 9.12305ZM37.5745 5.12695H40.387C40.387 4.60352 40.2679 4.20117 40.0296 3.91992C39.7913 3.63867 39.4613 3.49805 39.0394 3.49805C38.6448 3.49805 38.3109 3.63477 38.0374 3.9082C37.7679 4.18164 37.6136 4.58789 37.5745 5.12695Z" fill="#00A82D"/>
<path d="M45.3448 9.12305C44.3096 9.12305 43.503 8.82617 42.9248 8.23242C42.3506 7.63477 42.0635 6.81055 42.0635 5.75977C42.0635 4.73633 42.335 3.92188 42.878 3.31641C43.4209 2.71094 44.1612 2.40625 45.0987 2.40234C45.9854 2.40234 46.6729 2.67969 47.1612 3.23438C47.6534 3.78906 47.8995 4.52539 47.8995 5.44336C47.8995 5.50977 47.8975 5.61719 47.8936 5.76562C47.8936 5.91406 47.8936 6.02344 47.8936 6.09375H43.6104C43.626 6.69531 43.7901 7.16211 44.1026 7.49414C44.419 7.82227 44.8526 7.98633 45.4034 7.98633C46.1065 7.98633 46.7823 7.80273 47.4307 7.43555L47.6475 8.52539C47.003 8.92383 46.2354 9.12305 45.3448 9.12305ZM43.6397 5.12695H46.4522C46.4522 4.60352 46.333 4.20117 46.0948 3.91992C45.8565 3.63867 45.5264 3.49805 45.1045 3.49805C44.71 3.49805 44.376 3.63477 44.1026 3.9082C43.833 4.18164 43.6787 4.58789 43.6397 5.12695Z" fill="#00A82D"/>
</svg>
